<svg width="35" height="42" viewBox="0 0 35 42" fill="none" xmlns="http://www.w3.org/2000/svg">
<path d="M34.6614 17.2218L32.9128 16.6725C32.5251 15.0406 31.8823 13.4911 30.9974 12.0564L31.8473 10.4284L27.4329 6.01405L25.805 6.86395C24.6544 6.15449 23.4208 5.60854 22.1337 5.21557V3.85927C22.1337 2.04143 20.6548 0.5625 18.8369 0.5625H16.1995C14.3817 0.5625 12.9027 2.04143 12.9027 3.85927V5.21557C11.6157 5.60854 10.382 6.15449 9.23145 6.86395L7.6035 6.01405L3.18913 10.4284L4.03903 12.0564C3.15418 13.4911 2.51131 15.0406 2.12361 16.6725L0.375 17.2218V23.4652L2.12361 24.0144C2.51131 25.6463 3.15418 27.1958 4.03903 28.6306L3.18913 30.2585L7.6035 34.6729L9.23145 33.823C10.0009 34.2971 10.8106 34.7019 11.6473 35.0369C11.6097 35.1885 11.584 35.3448 11.584 35.5083C11.584 36.38 12.1544 37.1132 12.9383 37.3763C13.2113 39.6629 15.159 41.4425 17.5182 41.4425C19.8774 41.4425 21.8251 39.6629 22.0981 37.3763C22.8821 37.1132 23.4524 36.38 23.4524 35.5083C23.4524 35.3448 23.4267 35.1885 23.3891 35.0362C24.2252 34.7013 25.0349 34.2964 25.805 33.8223L27.4329 34.6722L31.8473 30.2579L30.9974 28.6299C31.8823 27.1952 32.5251 25.6457 32.9128 24.0138L34.6614 23.4645V17.2218ZM20.8658 30.8928H14.1707C14.0025 29.6888 13.3834 28.6002 12.4056 27.8394L11.793 27.3626C9.56508 25.6305 8.28725 23.0175 8.28725 20.1941C8.28725 16.8861 10.0708 13.8887 12.9027 12.2904V22.5098L15.9503 27.3857C16.2905 27.9303 16.876 28.2554 17.5182 28.2554C18.1604 28.2554 18.7459 27.9303 19.0862 27.3864L22.1337 22.5104V12.2904C24.965 13.8894 26.7492 16.8881 26.7492 20.1941C26.7492 23.0168 25.4714 25.6299 23.2427 27.3633L22.6309 27.8394C21.653 28.6002 21.0339 29.6888 20.8658 30.8928ZM16.0696 21.8049L17.5182 23.2535L18.9668 21.8049L20.5308 22.5869L17.9679 26.6875C17.7727 27 17.2644 27 17.0692 26.6875L14.5063 22.5869L16.0696 21.8049ZM20.815 21.2544L19.4963 20.595V7.15605H20.815V21.2544ZM18.1776 20.7295L17.5182 21.3889L16.8589 20.7295V7.15605H18.1776V20.7295ZM15.5402 20.595L14.2214 21.2544V7.15605H15.5402V20.595ZM12.9027 10.8062C9.28552 12.5272 6.96855 16.1595 6.96855 20.1941C6.96855 23.4269 8.43231 26.4191 10.9834 28.4038L11.5959 28.8805C12.2862 29.4172 12.7267 30.182 12.8579 31.0287C12.7728 31.0616 12.6931 31.1025 12.6139 31.146C8.37495 29.2207 5.64984 25.0186 5.64984 20.3431C5.64984 15.5325 8.52924 11.2473 12.9027 9.40577V10.8062ZM12.9027 32.8709C12.9027 32.5076 13.1988 32.2115 13.5621 32.2115H21.4743C21.8377 32.2115 22.1337 32.5076 22.1337 32.8709C22.1337 33.2342 21.8377 33.5302 21.4743 33.5302H13.5621C13.1988 33.5302 12.9027 33.2342 12.9027 32.8709ZM22.4225 31.146C22.3434 31.1025 22.2636 31.061 22.1785 31.0287C22.3091 30.182 22.7502 29.4172 23.4405 28.8805L24.0524 28.4044C26.6041 26.4198 28.0679 23.4276 28.0679 20.1948C28.0679 16.1622 25.7509 12.5278 22.1337 10.8069V9.40577C26.5072 11.2473 29.3866 15.5325 29.3866 20.3431C29.3866 25.0219 26.6621 29.22 22.4225 31.146ZM16.1995 1.88121H18.8369C19.9275 1.88121 20.815 2.7687 20.815 3.85927V5.83734H14.2214V3.85927C14.2214 2.7687 15.1089 1.88121 16.1995 1.88121ZM9.29936 32.2986L7.85142 33.0548L4.80586 30.0093L5.56214 28.5613L5.35181 28.2383C4.37662 26.7402 3.69617 25.0991 3.32891 23.3617L3.24913 22.9845L1.69371 22.4966V18.1904L3.24913 17.7024L3.32891 17.3253C3.69683 15.5872 4.37728 13.9461 5.35181 12.4487L5.56214 12.1256L4.80586 10.6777L7.85142 7.6321L9.29936 8.38838L9.62245 8.17805C10.6484 7.51012 11.7502 6.98594 12.9027 6.59823V7.99805C7.75911 9.91809 4.33113 14.8138 4.33113 20.3431C4.33113 25.407 7.20789 29.9724 11.7152 32.1805C11.6341 32.3962 11.584 32.6269 11.584 32.8709C11.584 33.1452 11.6407 33.4069 11.7423 33.645C11.0078 33.3252 10.297 32.948 9.62245 32.5096L9.29936 32.2986ZM17.5182 40.1238C15.9265 40.1238 14.5946 38.989 14.288 37.4864H20.7484C20.4418 38.989 19.1099 40.1238 17.5182 40.1238ZM21.4743 36.1677H13.5621C13.1988 36.1677 12.9027 35.8716 12.9027 35.5083C12.9027 35.145 13.1988 34.849 13.5621 34.849H21.4743C21.8377 34.849 22.1337 35.145 22.1337 35.5083C22.1337 35.8716 21.8377 36.1677 21.4743 36.1677ZM33.3427 22.4966L31.7873 22.9852L31.7075 23.3623C31.3396 25.1004 30.6592 26.7415 29.6846 28.2389L29.4743 28.562L30.2306 30.0099L27.185 33.0555L25.7371 32.2992L25.414 32.5096C24.7401 32.948 24.0287 33.3252 23.2948 33.645C23.3957 33.4069 23.4524 33.1452 23.4524 32.8709C23.4524 32.6276 23.4023 32.3968 23.3212 32.1812C27.8299 29.973 30.7053 25.4103 30.7053 20.3431C30.7053 14.8138 27.2773 9.91809 22.1337 7.99739V6.59758C23.2856 6.98462 24.3874 7.50946 25.414 8.17739L25.7371 8.38772L27.185 7.63144L30.2306 10.677L29.4743 12.1249L29.6846 12.448C30.6598 13.9461 31.3403 15.5872 31.7075 17.3246L31.7873 17.7018L33.3427 18.1897V22.4966Z" fill="#484848"/>
</svg>
