<svg width="35" height="39" viewBox="0 0 35 39" fill="none" xmlns="http://www.w3.org/2000/svg">
<path d="M32.8125 8.83019H27.7083V2.20755C27.7083 1.62207 27.4779 1.06057 27.0676 0.646575C26.6574 0.23258 26.101 0 25.5208 0H9.47917C8.89901 0 8.34261 0.23258 7.93237 0.646575C7.52213 1.06057 7.29167 1.62207 7.29167 2.20755V8.83019H2.1875C1.60734 8.83019 1.05094 9.06277 0.640704 9.47676C0.230468 9.89076 0 10.4523 0 11.0377V26.4906C0 27.076 0.230468 27.6375 0.640704 28.0515C1.05094 28.4655 1.60734 28.6981 2.1875 28.6981H6.5625V33.8491C6.5625 34.4345 6.79297 34.996 7.2032 35.41C7.61344 35.824 8.16984 36.0566 8.75 36.0566H26.25C26.8302 36.0566 27.3866 35.824 27.7968 35.41C28.207 34.996 28.4375 34.4345 28.4375 33.8491V28.6981H32.8125C33.3927 28.6981 33.9491 28.4655 34.3593 28.0515C34.7695 27.6375 35 27.076 35 26.4906V11.0377C35 10.4523 34.7695 9.89076 34.3593 9.47676C33.9491 9.06277 33.3927 8.83019 32.8125 8.83019ZM8.75 2.20755C8.75 2.01239 8.82682 1.82522 8.96357 1.68722C9.10031 1.54923 9.28578 1.4717 9.47917 1.4717H25.5208C25.7142 1.4717 25.8997 1.54923 26.0364 1.68722C26.1732 1.82522 26.25 2.01239 26.25 2.20755V13.9811H8.75V2.20755ZM5.10417 27.2264V23.5472H6.5625V27.2264H5.10417ZM26.9792 33.8491C26.9792 34.0442 26.9023 34.2314 26.7656 34.3694C26.6289 34.5074 26.4434 34.5849 26.25 34.5849H8.75C8.55661 34.5849 8.37115 34.5074 8.2344 34.3694C8.09766 34.2314 8.02083 34.0442 8.02083 33.8491V23.5472H9.47917C9.47917 23.9375 9.63281 24.3118 9.9063 24.5878C10.1798 24.8638 10.5507 25.0189 10.9375 25.0189C11.3243 25.0189 11.6952 24.8638 11.9687 24.5878C12.2422 24.3118 12.3958 23.9375 12.3958 23.5472H17.6604L16.0927 26.1226L15.2104 24.6509C15.1459 24.5411 15.0541 24.4502 14.9441 24.387C14.8342 24.3238 14.7099 24.2906 14.5833 24.2906C14.4568 24.2906 14.3325 24.3238 14.2225 24.387C14.1126 24.4502 14.0208 24.5411 13.9562 24.6509L9.58125 32.0094C9.51744 32.121 9.48375 32.2475 9.48355 32.3763C9.48336 32.505 9.51667 32.6316 9.58015 32.7434C9.64362 32.8551 9.73505 32.9481 9.84529 33.013C9.95553 33.0779 10.0807 33.1124 10.2083 33.1132H24.7917C24.9209 33.113 25.0477 33.0781 25.1592 33.0122C25.2706 32.9462 25.3627 32.8516 25.426 32.7379C25.49 32.6261 25.5237 32.4992 25.5237 32.37C25.5237 32.2408 25.49 32.1139 25.426 32.0021L20.2708 23.5472H26.9792V33.8491ZM18.9583 31.6415H11.499L14.5833 26.4906L15.4365 27.9181C15.4619 27.9599 15.4939 27.9972 15.5312 28.0285C15.5641 28.0665 15.6008 28.101 15.6406 28.1315C15.6697 28.1344 15.699 28.1344 15.7281 28.1315C15.7763 28.1563 15.8279 28.1737 15.8813 28.183H16.0417C16.0924 28.1904 16.144 28.1904 16.1948 28.183L16.3333 28.1389L16.4281 28.1021C16.4679 28.0742 16.5045 28.0422 16.5375 28.0064C16.5752 27.9733 16.6094 27.9363 16.6396 27.896L18.9 24.2168L23.4865 31.6415H18.9583ZM28.4375 23.5472H29.8958V27.2264H28.4375V23.5472ZM33.5417 26.4906C33.5417 26.6857 33.4648 26.8729 33.3281 27.0109C33.1914 27.1489 33.0059 27.2264 32.8125 27.2264H31.3542V22.8113C31.3542 22.6162 31.2773 22.429 31.1406 22.291C31.0039 22.153 30.8184 22.0755 30.625 22.0755H4.375C4.18161 22.0755 3.99615 22.153 3.8594 22.291C3.72266 22.429 3.64583 22.6162 3.64583 22.8113V27.2264H2.1875C1.99411 27.2264 1.80865 27.1489 1.6719 27.0109C1.53516 26.8729 1.45833 26.6857 1.45833 26.4906V11.0377C1.45833 10.8426 1.53516 10.6554 1.6719 10.5174C1.80865 10.3794 1.99411 10.3019 2.1875 10.3019H7.29167V14.717C7.29167 14.9121 7.36849 15.0993 7.50523 15.2373C7.64198 15.3753 7.82745 15.4528 8.02083 15.4528H26.9792C27.1726 15.4528 27.358 15.3753 27.4948 15.2373C27.6315 15.0993 27.7083 14.9121 27.7083 14.717V10.3019H32.8125C33.0059 10.3019 33.1914 10.3794 33.3281 10.5174C33.4648 10.6554 33.5417 10.8426 33.5417 11.0377V26.4906ZM32.0833 12.5094C32.0833 12.7046 32.0065 12.8918 31.8698 13.0298C31.733 13.1678 31.5476 13.2453 31.3542 13.2453H29.8958C29.7024 13.2453 29.517 13.1678 29.3802 13.0298C29.2435 12.8918 29.1667 12.7046 29.1667 12.5094C29.1667 12.3143 29.2435 12.1271 29.3802 11.9891C29.517 11.8511 29.7024 11.7736 29.8958 11.7736H31.3542C31.5476 11.7736 31.733 11.8511 31.8698 11.9891C32.0065 12.1271 32.0833 12.3143 32.0833 12.5094ZM32.0833 15.4528C32.0833 15.648 32.0065 15.8352 31.8698 15.9732C31.733 16.1112 31.5476 16.1887 31.3542 16.1887H29.8958C29.7024 16.1887 29.517 16.1112 29.3802 15.9732C29.2435 15.8352 29.1667 15.648 29.1667 15.4528C29.1667 15.2577 29.2435 15.0705 29.3802 14.9325C29.517 14.7945 29.7024 14.717 29.8958 14.717H31.3542C31.5476 14.717 31.733 14.7945 31.8698 14.9325C32.0065 15.0705 32.0833 15.2577 32.0833 15.4528ZM23.3333 8.09434C23.3333 8.2895 23.2565 8.47667 23.1198 8.61466C22.983 8.75266 22.7976 8.83019 22.6042 8.83019H12.3958C12.2024 8.83019 12.017 8.75266 11.8802 8.61466C11.7435 8.47667 11.6667 8.2895 11.6667 8.09434C11.6667 7.89918 11.7435 7.71201 11.8802 7.57402C12.017 7.43602 12.2024 7.35849 12.3958 7.35849H22.6042C22.7976 7.35849 22.983 7.43602 23.1198 7.57402C23.2565 7.71201 23.3333 7.89918 23.3333 8.09434ZM21.1458 38.2642C21.1458 38.4593 21.069 38.6465 20.9323 38.7845C20.7955 38.9225 20.6101 39 20.4167 39H10.2083C10.0149 39 9.82948 38.9225 9.69273 38.7845C9.55599 38.6465 9.47917 38.4593 9.47917 38.2642C9.47917 38.069 9.55599 37.8818 9.69273 37.7438C9.82948 37.6058 10.0149 37.5283 10.2083 37.5283H20.4167C20.6101 37.5283 20.7955 37.6058 20.9323 37.7438C21.069 37.8818 21.1458 38.069 21.1458 38.2642ZM25.5208 38.2642C25.5208 38.4593 25.444 38.6465 25.3073 38.7845C25.1705 38.9225 24.9851 39 24.7917 39H23.3333C23.1399 39 22.9545 38.9225 22.8177 38.7845C22.681 38.6465 22.6042 38.4593 22.6042 38.2642C22.6042 38.069 22.681 37.8818 22.8177 37.7438C22.9545 37.6058 23.1399 37.5283 23.3333 37.5283H24.7917C24.9851 37.5283 25.1705 37.6058 25.3073 37.7438C25.444 37.8818 25.5208 38.069 25.5208 38.2642ZM23.3333 5.15094C23.3333 5.3461 23.2565 5.53327 23.1198 5.67127C22.983 5.80927 22.7976 5.88679 22.6042 5.88679H12.3958C12.2024 5.88679 12.017 5.80927 11.8802 5.67127C11.7435 5.53327 11.6667 5.3461 11.6667 5.15094C11.6667 4.95578 11.7435 4.76862 11.8802 4.63062C12.017 4.49262 12.2024 4.41509 12.3958 4.41509H22.6042C22.7976 4.41509 22.983 4.49262 23.1198 4.63062C23.2565 4.76862 23.3333 4.95578 23.3333 5.15094Z" fill="#484848"/>
</svg>
