<svg width="49" height="33" viewBox="0 0 49 33" fill="none" xmlns="http://www.w3.org/2000/svg">
<g clip-path="url(#clip0)">
<path d="M2.96783 20.0378H4.2211V29.0851C4.2211 31.2439 5.97649 33 8.13342 33C10.2902 33 12.0456 31.2439 12.0456 29.0851V22.1266C21.222 20.5133 34.2795 29.8338 35.4902 29.4587C38.6621 28.9159 39.5283 20.0542 39.5283 14.735C39.5283 9.41906 38.663 0.564841 35.4959 0.0121224C34.2223 -0.39315 20.4872 9.51361 11.2736 7.19644C11.2292 7.18531 11.1852 7.19899 11.1405 7.19389C11.1006 7.18919 11.0657 7.1705 11.0245 7.1705C8.92619 7.1705 7.02654 8.03271 5.65679 9.42008H2.96783C1.33098 9.42008 0 10.7523 0 12.3906V17.0673C0 18.7056 1.33098 20.0378 2.96783 20.0378ZM8.13342 30.9578C7.10122 30.9578 6.26142 30.1182 6.26142 29.0851V20.5877C7.31229 21.4452 8.59841 22.0192 10.0053 22.2104V29.0851C10.0053 30.1182 9.16552 30.9578 8.13342 30.9578ZM37.4879 14.735C37.4879 22.1145 36.1411 26.5921 35.2798 27.3718C33.293 26.2716 32.8912 17.0411 32.8912 14.735C32.8912 7.83697 34.0567 3.47721 34.9818 2.26129C35.0809 2.20666 35.1803 2.15223 35.2792 2.0975C36.1405 2.87558 37.4879 7.35369 37.4879 14.735ZM32.1221 3.79711C31.2559 6.72428 30.8509 10.9129 30.8509 14.735C30.8509 18.5567 31.2559 22.7452 32.1219 25.6724C25.2675 22.0976 17.9887 19.1618 12.0456 20.0417V19.0238C12.0456 19.022 12.0446 19.0205 12.0446 19.0188V9.42804C17.9853 10.3084 25.2666 7.37319 32.1221 3.79711ZM10.0043 9.31133V20.1466C7.45185 19.6658 5.51324 17.4211 5.51324 14.7289C5.51324 12.0368 7.45185 9.79206 10.0043 9.31133ZM2.04032 12.3906C2.04032 11.8791 2.45673 11.4623 2.96783 11.4623H4.22498C3.74807 12.4525 3.47291 13.5579 3.47291 14.7289C3.47291 15.9 3.74807 17.0054 4.22498 17.9956H2.96783C2.45673 17.9956 2.04032 17.5788 2.04032 17.0673V12.3906Z" fill="#484848"/>
<path d="M47.9474 13.6461H41.8693C41.3054 13.6461 40.8491 14.1027 40.8491 14.6672C40.8491 15.2315 41.3054 15.6883 41.8693 15.6883H47.9474C48.5112 15.6883 48.9675 15.2315 48.9675 14.6672C48.9675 14.1027 48.5112 13.6461 47.9474 13.6461Z" fill="#484848"/>
<path d="M46.0111 6.63905L41.2569 10.2108C40.8067 10.5498 40.7159 11.189 41.0537 11.6408C41.386 12.0841 42.0225 12.1874 42.4823 11.8442L47.2364 8.2724C47.6867 7.93329 47.7774 7.29419 47.4397 6.84246C47.1019 6.39072 46.4633 6.30301 46.0111 6.63905Z" fill="#484848"/>
<path d="M47.4397 22.6275C47.7774 22.1758 47.6867 21.5366 47.2364 21.1976L42.4823 17.6257C42.03 17.2886 41.3924 17.3784 41.0537 17.8291C40.7159 18.2808 40.8067 18.92 41.2569 19.259L46.0111 22.8309C46.471 23.1743 47.1076 23.0708 47.4397 22.6275Z" fill="#484848"/>
</g>
<defs>
<clipPath id="clip0">
<rect width="49" height="33" fill="white"/>
</clipPath>
</defs>
</svg>
