<svg height='100px' width='100px'  fill="#FFFFFF" xmlns="http://www.w3.org/2000/svg" data-name="Layer 2" viewBox="0 0 24 24" x="0px" y="0px"><title>UI</title><path d="M19.834,4.5H4.166A2.669,2.669,0,0,0,1.5,7.166v9.668A2.669,2.669,0,0,0,4.166,19.5H19.834A2.669,2.669,0,0,0,22.5,16.834V7.166A2.669,2.669,0,0,0,19.834,4.5ZM21.5,16.834A1.668,1.668,0,0,1,19.834,18.5H4.166A1.668,1.668,0,0,1,2.5,16.834V7.166A1.668,1.668,0,0,1,4.166,5.5H19.834A1.668,1.668,0,0,1,21.5,7.166Z"></path><path d="M20.354,6.646a.5.5,0,0,0-.708,0L12,14.293,4.354,6.646a.5.5,0,0,0-.708.708L8.293,12,3.646,16.646a.5.5,0,0,0,.708.708L9,12.707l2.646,2.647a.5.5,0,0,0,.708,0L15,12.707l4.646,4.647a.5.5,0,0,0,.708-.708L15.707,12l4.647-4.646A.5.5,0,0,0,20.354,6.646Z"></path></svg>