<?xml version="1.0" encoding="utf-8"?>
<!-- Generator: Adobe Illustrator 23.0.2, SVG Export Plug-In . SVG Version: 6.00 Build 0)  -->
<svg version="1.1" id="Layer_1" xmlns="http://www.w3.org/2000/svg" xmlns:xlink="http://www.w3.org/1999/xlink" x="0px" y="0px"
	 viewBox="0 0 44 44" style="enable-background:new 0 0 44 44;" xml:space="preserve">
<style type="text/css">
	.st0{fill:#484848;}
</style>
<path class="st0" d="M10.4,43.9c0.4,0.1,0.8,0,0.9-0.4c0,0,0,0,0,0l8.1-20.8h5.1l8.1,20.8c0.1,0.4,0.5,0.5,0.9,0.4
	c0.4-0.1,0.5-0.5,0.4-0.9l-8.2-21v0v-5.1c0-2.1-1.7-3.8-3.8-3.8s-3.8,1.7-3.8,3.8V22c0,0,0,0,0,0L10,43
	C9.9,43.4,10.1,43.8,10.4,43.9z M19.6,16.9c0-1.3,1.1-2.4,2.4-2.4s2.4,1.1,2.4,2.4v4.5h-4.8V16.9z"/>
<path class="st0" d="M1.1,32.5v10.7c0,0.4,0.3,0.7,0.7,0.7h2.7c0.1,0,0.1,0,0.2,0h0c0.2-0.1,0.4-0.2,0.4-0.4l9.9-21.9l0,0
	c0,0,0,0,0-0.1c0,0,0,0,0-0.1c0,0,0,0,0-0.1c0,0,0-0.1,0-0.1V10.4c3-2.2,5.3-4.7,6.6-7.3c0.1-0.2,0.2-0.3,0.2-0.5
	c0.1,0.2,0.2,0.3,0.2,0.5c1.4,2.6,3.6,5.1,6.6,7.3v10.9c0,0,0,0.1,0,0.1c0,0,0,0,0,0.1s0,0,0,0.1c0,0,0,0.1,0,0.1l0,0l9.9,21.9
	c0.1,0.2,0.2,0.3,0.4,0.4h0c0.1,0,0.1,0,0.2,0h2.7c0.4,0,0.7-0.3,0.7-0.7V32.5c1.3-1.1,1.5-3,0.4-4.3s-3-1.5-4.3-0.4
	c-0.3,0.3-0.6,0.7-0.8,1.1c-0.8-1.7-1.6-4.2-1.7-8.2v-0.1c1.3-1.1,1.4-3.1,0.2-4.4s-3.1-1.4-4.4-0.2S30.9,19,32,20.3
	c0.1,0.1,0.2,0.2,0.2,0.2v5.2l-2.1-4.5v-9.8c1.3,0.9,2.7,1.7,4.2,2.3c0.3,0.1,0.8,0,0.9-0.4c0.1-0.3,0-0.8-0.4-0.9
	c-1.8-0.8-3.4-1.8-5-2.9c-3-2.1-5.2-4.5-6.5-7c-0.3-0.6-0.6-1.3-0.8-2c-0.1-0.4-0.5-0.6-0.9-0.4c-0.2,0.1-0.4,0.2-0.4,0.4
	c-0.2,0.7-0.5,1.3-0.8,2c-1.3,2.5-3.5,4.9-6.5,7c-1.6,1.1-3.3,2.1-5,2.9c-0.3,0.1-0.5,0.6-0.4,0.9c0.1,0.3,0.6,0.5,0.9,0.4
	c1.5-0.7,2.9-1.5,4.2-2.3v9.8l-2.1,4.5v-5.2c1.3-1.1,1.4-3.1,0.2-4.4c-1.1-1.3-3.1-1.4-4.4-0.2S6.2,19,7.3,20.3
	c0.1,0.1,0.2,0.2,0.2,0.2v0.1c-0.1,4-0.9,6.6-1.7,8.2c-0.7-1.5-2.6-2.2-4.1-1.5c-1.5,0.7-2.2,2.6-1.5,4.1
	C0.5,31.9,0.7,32.2,1.1,32.5z M41.5,42.6h-1.4v-9.4c0.4,0.1,0.8,0.1,1.2,0l0.1,0V42.6z M40.9,28.5c0.9,0,1.7,0.8,1.7,1.7
	c0,0.9-0.8,1.7-1.7,1.7c-0.9,0-1.7-0.8-1.7-1.7C39.1,29.3,39.9,28.5,40.9,28.5z M37.9,31c0.2,0.6,0.5,1.1,0.9,1.5v7.6l-5.6-12.4h2.5
	c0.1,0,0.3,0,0.4-0.1C36.5,28.8,37.1,30,37.9,31z M33.7,26.3v-5.1c0.5,0.1,0.9,0.1,1.4,0v5.1H33.7z M34.3,16.5
	c0.9,0,1.7,0.8,1.7,1.7c0,0.9-0.8,1.7-1.7,1.7s-1.7-0.8-1.7-1.7C32.6,17.3,33.4,16.5,34.3,16.5z M9.6,16.5c0.9,0,1.7,0.8,1.7,1.7
	c0,0.9-0.8,1.7-1.7,1.7c-0.9,0-1.7-0.8-1.7-1.7C7.9,17.3,8.7,16.5,9.6,16.5z M10.3,21.2v5.1H9v-5.1C9.4,21.3,9.9,21.3,10.3,21.2z
	 M5.2,32.5c0.4-0.4,0.8-0.9,0.9-1.5c0.8-1,1.4-2.2,1.8-3.5c0.1,0.1,0.2,0.1,0.4,0.1h2.5L5.2,40.1V32.5z M3.8,42.6H2.4v-9.3l0.1,0
	c0.4,0.1,0.8,0.1,1.2,0V42.6z M3.1,28.5c0.9,0,1.7,0.8,1.7,1.7c0,0.9-0.8,1.7-1.7,1.7s-1.7-0.8-1.7-1.7C1.4,29.3,2.2,28.5,3.1,28.5z
	"/>
<polygon class="st0" points="22.4,8.6 22,7.3 21.6,8.6 20.3,8.6 21.3,9.4 20.9,10.7 22,9.9 23.1,10.7 22.6,9.4 23.7,8.6 "/>
<polygon class="st0" points="31.1,2.6 30.3,1.7 30.4,2.9 29.6,3.8 30.7,3.6 31.6,4.4 31.4,3.3 32.3,2.4 "/>
<polygon class="st0" points="36,7.5 35.9,8.7 34.9,9.3 36.1,9.4 36.7,10.4 36.8,9.3 37.8,8.6 36.6,8.5 "/>
<polygon class="st0" points="39.8,3.6 39.1,2.7 39.3,1.6 38.4,2.3 37.2,2.1 38,3 37.8,4.2 38.7,3.4 "/>
<polygon class="st0" points="2.3,3.9 3.4,4.3 2.8,3.3 3.2,2.2 2.2,2.8 1.1,2.3 1.7,3.3 1.2,4.4 "/>
<polygon class="st0" points="8.1,7.7 7.4,8.7 6.2,8.7 7.2,9.4 7.2,10.6 7.9,9.7 9.1,9.6 8.2,8.9 "/>
<polygon class="st0" points="11.2,3.8 10.4,3 10.6,1.8 9.7,2.6 8.6,2.3 9.3,3.2 9.1,4.4 10,3.6 "/>
</svg>
