<svg width="47" height="51" viewBox="0 0 47 51" fill="none" xmlns="http://www.w3.org/2000/svg">
<path d="M22.3271 4.78777C22.3271 4.78777 24.7087 7.1326 29.9184 5.08088C29.9184 5.08088 32.5977 3.90846 36.6166 4.49467C36.6166 4.49467 32.7466 1.12398 27.0903 1.85674C27.0903 1.85674 22.3271 2.73605 22.3271 4.78777Z" fill="#B0CB1F"/>
<path d="M23.2205 5.22742C23.2205 5.22742 20.2435 6.83948 15.9269 3.32224C15.9269 3.32224 13.6942 1.41707 9.67529 0.830864C9.67529 0.830864 14.4385 -1.22086 19.4993 1.12397C19.4993 1.12397 23.8159 3.32224 23.2205 5.22742Z" fill="#B0CB1F"/>
<path d="M46.8873 27.7964C46.8873 40.5464 36.3191 50.805 23.5181 50.805C10.7171 50.805 0 40.5464 0 27.7964C0 15.0464 10.5683 4.78778 23.3692 4.78778C36.1702 4.78778 46.8873 15.0464 46.8873 27.7964ZM41.9753 27.7964C41.9753 16.0723 33.6398 6.39985 23.3692 6.39985C13.2475 6.5464 4.91201 16.0723 4.91201 27.7964C4.91201 39.5205 13.2475 49.1929 23.5181 49.1929C33.7887 49.1929 41.9753 39.6671 41.9753 27.7964Z" fill="#EF7F1A"/>
</svg>
