<svg height='100px' width='100px'  fill="#FFFFFF" xmlns="http://www.w3.org/2000/svg" xmlns:xlink="http://www.w3.org/1999/xlink" version="1.1" x="0px" y="0px" viewBox="0 0 90 90" enable-background="new 0 0 90 90" xml:space="preserve"><path d="M45,40.4c-0.7,0-1.4-0.1-2.1-0.2c-5.1-0.8-9.3-5-10.1-10.1c-0.6-3.6,0.4-7.3,2.8-10.1c2.8-3.3,7.2-4.9,11.5-4.2  c5.1,0.8,9.3,5,10.1,10.1c0.6,3.6-0.4,7.3-2.8,10.1C52.1,38.8,48.6,40.4,45,40.4z M45,18.7c-2.8,0-5.4,1.2-7.1,3.3  c-1.8,2.1-2.5,4.8-2.1,7.6c0.6,3.9,3.8,7,7.6,7.6c3.3,0.5,6.6-0.7,8.7-3.2c1.8-2.1,2.5-4.8,2.1-7.6c-0.6-3.9-3.8-7-7.6-7.6  C46.1,18.7,45.5,18.7,45,18.7z"></path><path d="M45,69.5l-1.2-1.6C42.9,66.7,23.2,39.6,23.2,28C23.2,16,33,6.2,45,6.2S66.8,16,66.8,28c0,11.6-19.8,38.7-20.6,39.8L45,69.5z   M45,9.2c-10.4,0-18.8,8.4-18.8,18.8c0,9.1,14.5,30.2,18.8,36.3c4.3-6.1,18.8-27.3,18.8-36.3C63.8,17.6,55.4,9.2,45,9.2z"></path><path d="M45,84.1c-21.2,0-37.8-6.6-37.8-15.1c0-7.4,12-13.3,29.8-14.8l0.2,3c-15.4,1.3-27.1,6.4-27.1,11.8  c0,5.7,14.3,12.1,34.8,12.1s34.8-6.4,34.8-12.1c0-5.5-11.6-10.6-27.1-11.8l0.2-3c17.8,1.5,29.8,7.4,29.8,14.8  C82.8,77.4,66.2,84.1,45,84.1z"></path></svg>