<svg height='100px' width='100px'  fill="#FFFFFF" xmlns="http://www.w3.org/2000/svg" data-name="Layer 1" viewBox="0 0 100 100" x="0px" y="0px"><title>16</title><g data-name="Group"><path data-name="Compound Path" d="M77.5,11.5a8,8,0,0,0-8-8h-39a8,8,0,0,0-8,8v77a8,8,0,0,0,8,8h39a8,8,0,0,0,8-8Zm-47-4h39a4,4,0,0,1,4,4v6.7h-47V11.5A4,4,0,0,1,30.5,7.5Zm43,14.7V73.1h-47V22.2Zm-4,70.3h-39a4,4,0,0,1-4-4V77.1h47V88.5A4,4,0,0,1,69.5,92.5Z"></path><rect data-name="Path" x="39.5" y="82.2" width="21" height="4"></rect></g></svg>