<svg width="181" height="51" viewBox="0 0 181 51" fill="none" xmlns="http://www.w3.org/2000/svg">
<path d="M22.3271 4.78777C22.3271 4.78777 24.7087 7.1326 29.9184 5.08088C29.9184 5.08088 32.5977 3.90846 36.6166 4.49467C36.6166 4.49467 32.7466 1.12398 27.0903 1.85674C27.0903 1.85674 22.3271 2.73605 22.3271 4.78777Z" fill="#B0CB1F"/>
<path d="M23.2205 5.22742C23.2205 5.22742 20.2435 6.83948 15.9269 3.32224C15.9269 3.32224 13.6942 1.41707 9.67529 0.830864C9.67529 0.830864 14.4385 -1.22086 19.4993 1.12397C19.4993 1.12397 23.8159 3.32224 23.2205 5.22742Z" fill="#B0CB1F"/>
<path d="M46.8873 27.7964C46.8873 40.5464 36.3191 50.805 23.5181 50.805C10.7171 50.805 0 40.5464 0 27.7964C0 15.0464 10.5683 4.78778 23.3692 4.78778C36.1702 4.78778 46.8873 15.0464 46.8873 27.7964ZM41.9753 27.7964C41.9753 16.0723 33.6398 6.39985 23.3692 6.39985C13.2475 6.5464 4.91201 16.0723 4.91201 27.7964C4.91201 39.5205 13.2475 49.193 23.5181 49.193C33.7887 49.193 41.9753 39.6671 41.9753 27.7964Z" fill="#EF7F1A"/>
<path d="M51.5016 49.486H50.7573V1.41705H51.5016V49.486Z" fill="#808080"/>
<path d="M57.6045 46.7016H58.4976V42.1584L60.1349 46.7016H61.028L62.6653 42.1584V46.7016H63.5584V40.8395H62.2188L60.7303 45.3826L58.9441 40.986H57.6045V46.7016ZM68.3216 41.8653L69.2147 44.3567H67.4285L68.3216 41.8653ZM65.6423 46.7016H66.6843L67.2797 45.0895H69.5124L70.1078 46.7016H71.1497L68.917 40.8395H67.875C67.7262 40.986 65.6423 46.7016 65.6423 46.7016ZM74.1267 41.7188H75.764C75.9129 41.7188 76.0617 41.7188 76.2106 41.7188C76.3594 41.7188 76.5083 41.7188 76.5083 41.8653C76.6571 41.8653 76.6571 42.0119 76.806 42.1584C76.806 42.305 76.806 42.4516 76.806 42.5981C76.806 43.1843 76.5083 43.4774 75.764 43.4774H74.1267V41.7188ZM73.0848 46.7016H74.1267V44.3567H75.6152C76.0617 44.3567 76.3594 44.5033 76.5083 44.6498C76.6571 44.9429 76.6571 45.236 76.6571 45.8222C76.6571 45.9688 76.6571 46.1153 76.6571 46.2619C76.6571 46.4085 76.6571 46.555 76.806 46.7016H77.8479C77.6991 46.555 77.6991 46.4085 77.5502 46.1153C77.5502 45.8222 77.4014 45.5291 77.4014 45.236C77.4014 44.9429 77.4014 44.7964 77.2525 44.6498C77.2525 44.5033 77.1037 44.3567 77.1037 44.2102C76.9548 44.0636 76.9548 44.0636 76.806 44.0636C76.6571 44.0636 76.6571 44.0636 76.5083 44.0636C76.5083 44.0636 76.6571 44.0636 76.806 43.9171C76.9548 43.9171 76.9548 43.7705 77.1037 43.624C77.2525 43.4774 77.2525 43.3309 77.4014 43.1843C77.5502 43.0378 77.5502 42.7447 77.5502 42.4516C77.5502 41.4257 76.9548 40.8395 75.6152 40.8395H72.9359L73.0848 46.7016ZM80.2295 46.7016H81.2714V44.7964L82.0157 43.9171L83.9507 46.7016H85.1415L82.7599 43.1843L84.9926 40.8395H83.8019L81.2714 43.4774V40.986H80.2295V46.7016ZM87.2254 46.7016H91.3931V45.8222H88.2673V44.0636H91.0954V43.1843H88.2673V41.7188H91.3931V40.986H87.2254V46.7016ZM93.1793 41.8653H94.9655V46.8481H96.0075V41.8653H97.7936V40.986H93.1793V41.8653ZM99.8775 46.7016H100.919V40.8395H99.8775C99.8775 40.986 99.8775 46.7016 99.8775 46.7016ZM103.45 46.7016H104.343V42.4516L107.022 46.7016H108.064V40.8395H107.171V45.0895L104.492 40.986H103.45V46.7016ZM115.804 43.624H113.423V44.3567H114.911C114.911 45.3826 114.316 45.9688 113.274 45.9688C112.679 45.9688 112.232 45.6757 111.934 45.236C111.637 44.7964 111.488 44.3567 111.488 43.7705C111.488 43.1843 111.637 42.7447 111.934 42.305C112.232 41.8653 112.679 41.5722 113.274 41.5722C113.572 41.5722 114.018 41.7188 114.316 41.8653C114.614 42.0119 114.762 42.305 114.762 42.7447H115.804C115.655 42.0119 115.507 41.5722 115.06 41.2791C114.614 40.986 114.018 40.8395 113.423 40.8395C112.53 40.8395 111.934 41.1326 111.339 41.7188C110.892 42.305 110.595 43.0378 110.595 43.9171C110.595 44.7964 110.892 45.5291 111.339 46.1153C111.785 46.7016 112.53 46.9947 113.423 46.9947C114.018 46.9947 114.614 46.7016 115.209 46.1153L115.358 46.8481H115.953C115.804 46.7016 115.804 43.624 115.804 43.624ZM122.205 44.7964C122.205 45.5291 122.503 45.9688 122.949 46.4085C123.396 46.7016 123.991 46.8481 124.586 46.8481C125.182 46.8481 125.777 46.7016 126.224 46.4085C126.67 46.1153 126.968 45.6757 126.968 44.9429C126.968 44.6498 126.819 44.3567 126.67 44.0636C126.521 43.7705 126.224 43.624 125.777 43.4774C125.182 43.3309 124.586 43.1843 124.14 43.0378C123.991 43.0378 123.842 42.8912 123.693 42.7447C123.544 42.5981 123.544 42.4516 123.544 42.305C123.544 42.1585 123.544 42.0119 123.693 41.8653C123.693 41.7188 123.842 41.7188 123.991 41.5722C124.14 41.5722 124.14 41.4257 124.289 41.4257C124.438 41.4257 124.586 41.4257 124.586 41.4257C124.884 41.4257 125.182 41.5722 125.479 41.7188C125.777 41.8653 125.777 42.1585 125.926 42.4516H126.968C126.968 41.8653 126.67 41.4257 126.373 41.1326C125.926 40.8395 125.479 40.6929 124.884 40.6929C124.289 40.6929 123.842 40.8395 123.396 41.1326C122.949 41.4257 122.8 41.8653 122.8 42.4516C122.8 42.7447 122.949 43.0378 123.098 43.3309C123.247 43.624 123.544 43.7705 124.14 43.9171C124.884 44.0636 125.479 44.2102 125.926 44.3567C126.075 44.3567 126.224 44.5033 126.224 44.5033C126.373 44.6498 126.373 44.7964 126.373 44.9429C126.373 45.236 126.224 45.3826 126.075 45.5291C125.926 45.6757 125.628 45.8222 125.182 45.8222C124.735 45.8222 124.438 45.6757 124.14 45.5291C123.842 45.3826 123.693 45.0895 123.693 44.6498L122.205 44.7964ZM131.582 40.8395C130.689 40.8395 130.094 41.1326 129.498 41.7188C129.052 42.305 128.754 43.0378 128.754 43.9171C128.754 44.7964 129.052 45.5291 129.498 46.1153C129.945 46.7016 130.689 46.9947 131.582 46.9947C132.475 46.9947 133.071 46.7016 133.666 46.1153C134.113 45.5291 134.41 44.7964 134.41 43.9171C134.41 43.0378 134.113 42.305 133.666 41.7188C133.22 41.1326 132.475 40.8395 131.582 40.8395ZM131.582 41.5722C132.178 41.5722 132.624 41.8653 132.922 42.305C133.22 42.7447 133.368 43.1843 133.368 43.7705C133.368 44.3567 133.22 44.7964 132.922 45.236C132.773 45.3826 132.624 45.6757 132.327 45.6757C132.029 45.8222 131.88 45.8222 131.582 45.8222C130.987 45.8222 130.54 45.5291 130.243 45.0895C129.945 44.6498 129.796 44.2102 129.796 43.624C129.796 43.0378 129.945 42.5981 130.243 42.1584C130.54 41.8653 130.987 41.5722 131.582 41.5722ZM136.792 46.7016H140.662V45.8222H137.685V40.986H136.643C136.792 40.986 136.792 46.7016 136.792 46.7016ZM142.746 44.6498C142.746 45.3826 142.895 45.9688 143.341 46.2619C143.788 46.7016 144.383 46.8481 144.979 46.8481C145.723 46.8481 146.318 46.7016 146.616 46.2619C147.063 45.8222 147.211 45.3826 147.211 44.6498V40.986H146.169V44.3567C146.169 44.5033 146.169 44.7964 146.169 44.9429C146.169 45.0895 146.169 45.3826 146.021 45.5291C145.872 45.6757 145.872 45.8222 145.574 45.9688C145.425 46.1153 145.128 46.1153 144.83 46.1153C144.532 46.1153 144.234 46.1153 144.086 45.9688C143.937 45.8222 143.788 45.6757 143.639 45.5291C143.49 45.3826 143.49 45.236 143.49 44.9429C143.49 44.7964 143.49 44.5033 143.49 44.3567V40.986H142.448L142.746 44.6498ZM149.593 41.8653H151.379V46.8481H152.421V41.8653H154.207V40.986H149.593V41.8653ZM156.291 46.7016H157.333V40.8395H156.291C156.291 40.986 156.291 46.7016 156.291 46.7016ZM162.394 40.8395C161.501 40.8395 160.905 41.1326 160.31 41.7188C159.864 42.305 159.566 43.0378 159.566 43.9171C159.566 44.7964 159.864 45.5291 160.31 46.1153C160.757 46.7016 161.501 46.9947 162.394 46.9947C163.287 46.9947 163.882 46.7016 164.478 46.1153C164.924 45.5291 165.222 44.7964 165.222 43.9171C165.222 43.0378 164.924 42.305 164.478 41.7188C163.882 41.1326 163.138 40.8395 162.394 40.8395ZM162.394 41.5722C162.989 41.5722 163.436 41.8653 163.734 42.305C164.031 42.7447 164.18 43.1843 164.18 43.7705C164.18 44.3567 164.031 44.7964 163.734 45.236C163.585 45.3826 163.436 45.6757 163.138 45.6757C162.841 45.8222 162.692 45.8222 162.394 45.8222C161.799 45.8222 161.352 45.5291 161.054 45.0895C160.757 44.6498 160.608 44.2102 160.608 43.624C160.608 43.0378 160.757 42.5981 161.054 42.1584C161.352 41.8653 161.799 41.5722 162.394 41.5722ZM167.455 46.7016H168.348V42.4516L171.027 46.7016H172.069V40.8395H171.176V45.0895L168.497 40.8395H167.455C167.455 40.986 167.455 46.7016 167.455 46.7016ZM174.451 44.7964C174.451 45.5291 174.748 45.9688 175.195 46.4085C175.642 46.7016 176.237 46.8481 176.832 46.8481C177.428 46.8481 178.023 46.7016 178.47 46.4085C178.916 46.1153 179.214 45.6757 179.214 44.9429C179.214 44.6498 179.065 44.3567 178.916 44.0636C178.767 43.7705 178.47 43.624 178.023 43.4774C177.428 43.3309 176.832 43.1843 176.386 43.0378C176.237 43.0378 176.088 42.8912 175.939 42.7447C175.79 42.5981 175.79 42.4516 175.79 42.305C175.79 42.1585 175.79 42.0119 175.939 41.8653C175.939 41.7188 176.088 41.7188 176.237 41.5722C176.386 41.5722 176.386 41.4257 176.535 41.4257C176.683 41.4257 176.832 41.4257 176.832 41.4257C177.13 41.4257 177.428 41.5722 177.725 41.7188C178.023 41.8653 178.023 42.1585 178.172 42.4516H179.214C179.214 41.8653 178.916 41.4257 178.618 41.1326C178.172 40.8395 177.725 40.6929 177.13 40.6929C176.535 40.6929 176.088 40.8395 175.642 41.1326C175.195 41.4257 175.046 41.8653 175.046 42.4516C175.046 42.7447 175.195 43.0378 175.344 43.3309C175.493 43.624 175.79 43.7705 176.386 43.9171C177.13 44.0636 177.725 44.2102 178.172 44.3567C178.321 44.3567 178.47 44.5033 178.47 44.5033C178.618 44.6498 178.618 44.7964 178.618 44.9429C178.618 45.236 178.47 45.3826 178.321 45.5291C178.172 45.6757 177.874 45.8222 177.428 45.8222C176.981 45.8222 176.683 45.6757 176.386 45.5291C176.088 45.3826 175.939 45.0895 175.939 44.6498L174.451 44.7964Z" fill="#B0CB1F"/>
<path d="M65.791 37.4688C67.2795 37.4688 68.768 37.1757 69.9587 36.5895C71.2984 36.0033 72.3403 35.2705 73.2334 34.2446C74.1265 33.2188 74.8707 32.0464 75.3173 30.5808C75.7638 29.1153 76.0615 27.6498 76.0615 25.8912C76.0615 24.2791 75.9127 22.8136 75.4661 21.3481C75.0196 20.0291 74.4242 18.7102 73.5311 17.6843C72.638 16.6584 71.5961 15.7791 70.2564 15.1929C68.9168 14.6067 67.4283 14.3136 65.6421 14.3136C63.856 14.3136 62.3675 14.6067 61.1767 15.1929C59.837 15.7791 58.7951 16.6584 57.902 17.6843C57.0089 18.7102 56.4135 20.0291 55.967 21.3481C55.5204 22.667 55.3716 24.2791 55.3716 25.8912C55.3716 27.7964 55.6693 29.4084 56.1158 30.8739C56.7112 32.3395 57.4555 33.5119 58.3486 34.5377C59.2416 35.5636 60.4324 36.1498 61.6232 36.736C62.9629 37.1757 64.3025 37.4688 65.791 37.4688ZM73.3823 26.0377C73.3823 27.2101 73.2334 28.3826 72.9357 29.4084C72.638 30.5808 72.1915 31.4601 71.5961 32.3395C71.0007 33.2188 70.2564 33.9515 69.2145 34.3912C68.3214 34.9774 67.1306 35.1239 65.791 35.1239C64.6002 35.1239 63.4094 34.8308 62.5163 34.3912C61.6232 33.9515 60.7301 33.3653 60.1347 32.486C59.5393 31.6067 59.0928 30.7274 58.6463 29.555C58.3486 28.3826 58.1997 27.2101 58.1997 25.7446C58.1997 24.5722 58.3486 23.3998 58.6463 22.2274C58.944 21.055 59.3905 20.1757 59.9859 19.2964C60.5813 18.417 61.3255 17.6843 62.3675 17.2446C63.2606 16.6584 64.4513 16.5119 65.791 16.5119C67.1306 16.5119 68.3214 16.805 69.2145 17.2446C70.1076 17.6843 71.0007 18.417 71.5961 19.1498C72.1915 20.0291 72.638 20.9084 72.9357 22.0808C73.2334 23.3998 73.3823 24.7188 73.3823 26.0377Z" fill="#EF7F1A"/>
<path d="M82.462 26.1843C82.462 25.0119 82.6108 23.8395 82.7597 22.667C83.0574 21.6412 83.3551 20.6153 83.9505 19.736C84.5459 18.8567 85.2901 18.2705 86.1832 17.8308C87.0763 17.3912 88.2671 17.0981 89.7556 17.0981V14.4601C88.5648 14.4601 87.374 14.6067 86.4809 14.8998C85.5878 15.1929 84.8436 15.6326 84.0993 16.3653C83.5039 17.0981 82.9085 17.9774 82.462 19.1498H82.3131V15.0464H79.7827V36.8826H82.3131V26.1843H82.462Z" fill="#EF7F1A"/>
<path d="M107.171 28.8222C107.171 29.9946 106.873 30.8739 106.427 31.7532C105.98 32.6326 105.385 33.2188 104.641 33.805C103.896 34.3912 103.003 34.6843 102.11 34.9774C101.217 35.2705 100.175 35.417 99.1333 35.417C98.5379 35.417 97.9425 35.2705 97.3471 35.1239C96.7517 34.9774 96.3052 34.6843 95.8586 34.3912C95.4121 34.0981 95.1144 33.6584 94.8167 33.2188C94.519 32.7791 94.3701 32.1929 94.3701 31.4601C94.3701 30.4343 94.6678 29.7015 95.1144 28.9688C95.5609 28.3826 96.3052 27.7963 97.1983 27.5032C98.0913 27.2101 99.2821 26.917 100.622 26.7705C101.366 26.7705 102.11 26.6239 102.854 26.6239C103.599 26.4774 104.343 26.4774 105.087 26.3308C105.831 26.1843 106.576 25.8912 107.32 25.5981L107.171 28.8222ZM99.2821 24.5722C96.7517 24.8653 94.6678 25.5981 93.477 26.7705C92.1374 27.9429 91.542 29.4084 91.542 31.167C91.542 32.1929 91.6908 33.2188 92.1374 33.9515C92.5839 34.6843 93.0305 35.417 93.7747 35.8567C94.519 36.4429 95.2632 36.736 96.1563 37.0291C97.0494 37.3222 97.9425 37.4688 98.9844 37.4688C100.622 37.4688 102.11 37.1757 103.599 36.5895C104.938 36.0032 106.278 35.1239 107.32 33.9515C107.32 34.5377 107.32 34.9774 107.469 35.417C107.618 35.8567 107.767 36.2964 108.064 36.5895C108.362 36.8826 108.808 37.1757 109.404 37.1757C109.553 37.1757 109.85 37.1757 109.999 37.3222C110.148 37.3222 110.446 37.3222 110.595 37.3222C110.892 37.3222 111.041 37.3222 111.339 37.1757C111.637 37.1757 111.785 37.0291 112.083 37.0291C112.232 37.0291 112.53 36.8826 112.679 36.8826V34.8308C111.934 35.1239 111.339 35.1239 111.041 35.1239C110.595 35.1239 110.446 34.9774 110.297 34.5377C110.148 34.2446 110.148 33.6584 110.148 33.0722V21.2015C110.148 19.8826 109.999 18.8567 109.553 17.9774C109.106 17.0981 108.511 16.3653 107.767 15.9257C107.022 15.3395 106.129 15.0464 105.236 14.7532C104.194 14.4601 103.152 14.4601 102.11 14.4601C100.919 14.4601 99.7287 14.6067 98.6867 14.8998C97.6448 15.1929 96.7517 15.6326 95.8586 16.2188C94.9655 16.805 94.3701 17.5377 93.9236 18.417C93.477 19.2964 93.1793 20.4688 93.0305 21.7877H95.7098C95.8586 20.4688 96.3052 19.5895 96.7517 18.8567C97.3471 18.1239 98.0913 17.6843 98.9844 17.3912C99.8775 17.0981 100.919 16.9515 102.11 16.9515C103.45 16.9515 104.492 17.0981 105.385 17.5377C106.129 17.9774 106.725 18.417 107.171 19.1498C107.469 19.8826 107.767 20.6153 107.767 21.4946C107.767 21.7877 107.767 22.0808 107.767 22.3739C107.767 22.667 107.618 22.9601 107.469 23.2532C107.32 23.5464 107.171 23.6929 106.873 23.8395C106.576 23.986 106.278 24.1326 105.831 24.1326C105.385 24.2791 105.087 24.2791 104.641 24.4257C104.194 24.4257 103.896 24.5722 103.599 24.5722H99.2821Z" fill="#EF7F1A"/>
<path d="M119.079 25.1584C119.079 24.4257 119.079 23.6929 119.227 23.1067C119.227 22.3739 119.376 21.7877 119.674 21.055C119.972 20.3222 120.418 19.5894 120.865 19.0032C121.46 18.417 122.056 17.8308 122.949 17.3912C123.842 16.9515 124.735 16.805 125.777 16.805C127.116 16.805 128.307 16.9515 129.051 17.5377C129.945 17.9774 130.54 18.7101 130.838 19.4429C131.284 20.3222 131.433 21.3481 131.433 22.667V37.0291H133.963V22.667C133.963 22.0808 133.963 21.4946 133.963 20.9084C133.963 20.3222 133.815 19.736 133.666 19.2963C133.517 18.7101 133.219 18.2705 132.922 17.6843C132.326 16.9515 131.731 16.3653 130.986 15.9257C130.242 15.486 129.498 15.1929 128.605 14.8998C127.712 14.7532 126.968 14.6067 125.926 14.6067C124.884 14.6067 123.991 14.7532 123.098 15.0463C122.204 15.3394 121.46 15.7791 120.865 16.3653C120.121 16.9515 119.525 17.5377 118.781 18.2705V15.1929H116.25V37.0291H119.079V25.1584Z" fill="#EF7F1A"/>
<path d="M163.733 24.4257C163.882 23.3998 164.18 22.3739 164.478 21.4946C164.924 20.6153 165.371 19.736 165.966 19.0032C166.561 18.2705 167.306 17.6843 168.199 17.3912C169.092 16.9515 170.134 16.805 171.176 16.805C172.367 16.805 173.408 16.9515 174.302 17.3912C175.195 17.8308 175.939 18.2705 176.534 19.0032C177.13 19.736 177.576 20.4688 177.874 21.4946C178.172 22.3739 178.32 23.3998 178.32 24.5722L163.733 24.4257ZM181 26.6239C181 23.986 180.553 21.7877 179.809 20.0291C179.065 18.2705 177.874 16.805 176.385 15.9257C174.897 15.0464 173.111 14.6067 171.176 14.4601C169.538 14.4601 168.199 14.7532 166.859 15.3395C165.668 15.9257 164.478 16.805 163.584 17.8308C162.691 18.8567 162.096 20.1757 161.501 21.4946C160.905 22.8136 160.756 24.4257 160.756 26.0377C160.756 27.6498 160.905 29.1153 161.352 30.5808C161.798 31.8998 162.394 33.2188 163.138 34.2446C164.031 35.2705 165.073 36.1498 166.264 36.736C167.603 37.3222 169.092 37.6153 170.878 37.6153C172.218 37.6153 173.557 37.4688 174.599 37.0291C175.641 36.736 176.534 36.1498 177.279 35.417C178.023 34.8308 178.618 33.9515 179.214 33.0722C179.66 32.1929 180.107 31.167 180.404 30.1412H177.576C177.279 31.167 176.832 32.1929 176.237 32.9257C175.641 33.6584 174.897 34.2446 173.855 34.6843C172.962 35.1239 171.92 35.2705 170.729 35.2705C169.538 35.2705 168.348 34.9774 167.455 34.5377C166.561 34.0981 165.668 33.5119 165.073 32.6326C164.478 31.8998 164.031 30.8739 163.733 29.8481C163.436 28.8222 163.287 27.6498 163.287 26.4774L181 26.6239Z" fill="#EF7F1A"/>
<path d="M153.76 23.1067C153.76 21.9343 153.463 21.055 153.016 20.1757C152.57 19.2964 151.974 18.7101 151.23 18.1239C150.486 17.5377 149.593 17.2446 148.7 16.9515C147.807 16.6584 146.765 16.5119 145.723 16.5119C145.127 16.5119 144.532 16.6584 143.936 16.805C143.341 16.9515 142.894 17.2446 142.448 17.5377C142.001 17.8308 141.704 18.2705 141.406 18.7101C141.108 19.1498 140.959 19.736 140.959 20.4688C140.959 21.4946 141.257 22.2274 141.704 22.9601C142.15 23.5464 142.894 24.1326 143.788 24.4257C144.681 24.7188 145.871 25.0119 147.211 25.1584C147.955 25.1584 148.7 25.305 149.444 25.305C150.188 25.4515 150.932 25.4515 151.677 25.5981C152.421 25.7446 153.165 26.0377 153.909 26.3308L153.76 23.1067ZM145.871 27.3567C143.341 27.0636 141.257 26.3308 140.066 25.1584C138.727 23.986 138.131 22.5205 138.131 20.7619C138.131 19.736 138.28 18.7101 138.727 17.9774C139.173 17.2446 139.62 16.5119 140.364 16.0722C141.108 15.486 141.853 15.1929 142.746 14.8998C143.639 14.6067 144.532 14.4601 145.574 14.4601C147.211 14.4601 148.7 14.7532 150.188 15.3395C151.528 15.9257 152.867 16.805 153.909 17.9774C153.909 17.3912 153.909 16.9515 154.058 16.5119C154.207 16.0722 154.356 15.6326 154.654 15.3395C154.951 15.0464 155.398 14.7532 155.993 14.7532C156.142 14.7532 156.44 14.7532 156.589 14.6067C156.737 14.6067 157.035 14.6067 157.184 14.6067C157.482 14.6067 157.631 14.6067 157.928 14.7532C158.226 14.7532 158.375 14.8998 158.672 14.8998C158.821 14.8998 159.119 15.0464 159.268 15.0464V17.0981C158.524 16.805 157.928 16.805 157.631 16.805C157.184 16.805 157.035 16.9515 156.886 17.3912C156.737 17.6843 156.737 18.2705 156.737 18.8567V30.7274C156.737 32.0464 156.589 33.0722 156.142 33.9515C155.695 34.8308 155.1 35.5636 154.356 36.0032C153.612 36.5895 152.719 36.8826 151.825 37.1757C150.783 37.4688 149.742 37.4688 148.7 37.4688C147.509 37.4688 146.318 37.3222 145.276 37.0291C144.234 36.736 143.341 36.2964 142.448 35.7101C141.555 35.1239 140.959 34.3912 140.513 33.5119C140.066 32.6326 139.769 31.4601 139.62 30.1412H142.299C142.448 31.4601 142.895 32.3395 143.341 33.0722C143.936 33.805 144.681 34.2446 145.574 34.5377C146.467 34.8308 147.509 34.9774 148.7 34.9774C150.039 34.9774 151.081 34.8308 151.974 34.3912C152.719 33.9515 153.314 33.5119 153.76 32.7791C154.058 32.0464 154.356 31.3136 154.356 30.4343C154.356 30.1412 154.356 29.8481 154.356 29.555C154.356 29.2619 154.207 28.9688 154.058 28.6757C153.909 28.3826 153.76 28.236 153.463 28.0895C153.165 27.9429 152.867 27.7964 152.421 27.7964C151.974 27.6498 151.677 27.6498 151.23 27.5032C150.783 27.5032 150.486 27.3567 150.188 27.3567H145.871Z" fill="#EF7F1A"/>
<path d="M85.8853 5.66706C85.8853 6.54637 85.4388 7.13258 84.6945 7.27913C84.9922 7.42568 85.1411 7.71879 85.1411 8.15844C85.1411 8.30499 85.1411 8.45155 85.1411 8.74465C85.1411 9.03775 85.1411 9.18431 85.1411 9.33086C85.1411 9.62396 85.1411 9.77051 85.2899 9.91706V10.2102H84.0991C84.0991 10.0636 83.9503 9.91706 83.9503 9.77051C83.9503 9.62396 83.9503 9.47741 83.9503 9.18431C83.9503 8.8912 83.9503 8.74465 83.9503 8.5981C83.9503 8.305 83.8014 8.01189 83.6526 7.86534C83.5037 7.71879 83.2061 7.71879 82.9084 7.71879H81.8664L81.4199 10.2102H80.3779L81.5687 4.055H83.8014C85.1411 4.055 85.8853 4.49465 85.8853 5.66706ZM84.8434 5.66706C84.8434 5.08086 84.5457 4.93431 83.8014 4.93431H82.4618L82.1641 6.83948H83.5037C84.3968 6.83948 84.8434 6.39982 84.8434 5.66706Z" fill="white"/>
<path d="M91.2439 7.42568C91.2439 7.57223 91.2439 7.86534 91.2439 8.15844H87.9692V8.30499C87.9692 9.03775 88.2669 9.47741 89.0111 9.47741C89.6065 9.47741 89.9042 9.1843 90.0531 8.74465H91.095C90.9462 9.1843 90.6485 9.62396 90.3508 9.91706C89.9042 10.2102 89.3088 10.3567 88.8623 10.3567C88.2669 10.3567 87.8204 10.2102 87.3738 9.77051C87.0761 9.47741 86.9273 8.8912 86.9273 8.30499C86.9273 7.57223 87.0761 6.98603 87.5227 6.39982C87.9692 5.81361 88.5646 5.52051 89.3088 5.52051C89.9042 5.52051 90.3508 5.66706 90.6485 6.10672C91.095 6.39982 91.2439 6.83948 91.2439 7.42568ZM90.2019 7.27913C90.2019 6.98603 90.2019 6.69292 90.0531 6.54637C89.9042 6.39982 89.6065 6.25327 89.3088 6.25327C88.5646 6.25327 88.1181 6.69292 87.9692 7.42568H90.2019C90.2019 7.42568 90.2019 7.42568 90.2019 7.27913Z" fill="white"/>
<path d="M97.4955 4.055L96.3047 10.2102H95.4116L95.5605 9.62396C95.1139 10.2102 94.6674 10.3567 94.072 10.3567C93.4766 10.3567 93.0301 10.2102 92.7324 9.77051C92.4347 9.47741 92.2858 9.03775 92.2858 8.45155C92.2858 7.71879 92.4347 7.13258 92.8812 6.54637C93.3278 5.96017 93.9232 5.66706 94.5186 5.66706C95.2628 5.66706 95.7093 5.96017 95.8582 6.54637L96.3047 4.20155H97.4955V4.055ZM95.8582 7.42568C95.8582 7.13258 95.7093 6.83948 95.5605 6.69293C95.4116 6.54637 95.1139 6.39982 94.8163 6.39982C94.3697 6.39982 93.9232 6.69293 93.7743 7.13258C93.4766 7.57224 93.4766 8.01189 93.4766 8.45155C93.4766 8.74465 93.6255 9.03775 93.7743 9.18431C93.9232 9.33086 94.2209 9.47741 94.5186 9.47741C94.9651 9.47741 95.4116 9.18431 95.7093 8.74465C95.7093 8.45155 95.8582 8.01189 95.8582 7.42568Z" fill="white"/>
<path d="M102.556 7.42568C102.556 7.57223 102.556 7.86534 102.556 8.15844H99.2817V8.30499C99.2817 9.03775 99.5794 9.47741 100.324 9.47741C100.919 9.47741 101.217 9.1843 101.366 8.74465H102.408C102.259 9.1843 101.961 9.62396 101.663 9.91706C101.217 10.2102 100.621 10.3567 100.175 10.3567C99.5794 10.3567 99.1329 10.2102 98.6863 9.77051C98.3886 9.47741 98.2398 8.8912 98.2398 8.30499C98.2398 7.57223 98.3886 6.98603 98.8352 6.39982C99.2817 5.81361 99.8771 5.52051 100.621 5.52051C101.217 5.52051 101.663 5.66706 101.961 6.10672C102.408 6.39982 102.556 6.83948 102.556 7.42568ZM101.514 7.27913C101.514 6.98603 101.514 6.69292 101.366 6.54637C101.217 6.39982 100.919 6.25327 100.621 6.25327C99.8771 6.25327 99.4306 6.69292 99.2817 7.42568H101.514C101.514 7.42568 101.514 7.42568 101.514 7.27913Z" fill="white"/>
<path d="M106.575 4.05501L106.426 4.78777C106.278 4.78777 106.129 4.78777 106.129 4.78777C105.98 4.78777 105.831 4.93432 105.682 5.08087C105.682 5.22742 105.682 5.52053 105.533 5.66708H106.278L106.129 6.39984H105.385L104.64 10.2102H103.747L104.491 6.39984H103.896L104.045 5.66708H104.64C104.789 5.08087 104.938 4.64122 104.938 4.49466C105.087 4.20156 105.533 4.05501 105.98 4.05501C106.129 3.90846 106.278 3.90846 106.575 4.05501Z" fill="white"/>
<path d="M108.808 4.055L108.659 4.93431H107.766L107.915 3.90845H108.808V4.055ZM108.51 5.66707L107.617 10.2102H106.724L107.617 5.66707H108.51Z" fill="white"/>
<path d="M113.869 6.69294C113.869 6.83949 113.869 6.98604 113.869 7.27914L113.273 10.2102H112.232L112.827 7.27914C112.827 7.13259 112.827 6.98604 112.827 6.83949C112.827 6.54638 112.678 6.25328 112.232 6.25328C111.487 6.25328 110.892 6.69294 110.743 7.7188L110.297 10.2102H109.403L110.297 5.66707H111.19L111.041 6.39983C111.487 5.81363 112.083 5.66707 112.678 5.66707C113.422 5.52052 113.869 5.96018 113.869 6.69294Z" fill="white"/>
<path d="M117.144 4.055L116.995 5.08086H116.102L116.25 4.055H117.144ZM116.846 5.66706L115.953 10.2102H115.06L115.953 5.66706H116.846Z" fill="white"/>
<path d="M122.204 6.69294C122.204 6.83949 122.204 6.98604 122.204 7.27914L121.609 10.2102H120.567L121.162 7.27914C121.162 7.13259 121.162 6.98604 121.162 6.83949C121.162 6.54638 121.014 6.25328 120.567 6.25328C119.823 6.25328 119.227 6.69294 119.079 7.7188L118.632 10.2102H117.739L118.632 5.66707H119.525L119.376 6.39983C119.823 5.81363 120.418 5.66707 121.014 5.66707C121.758 5.52052 122.204 5.96018 122.204 6.69294Z" fill="white"/>
<path d="M128.307 5.66706L127.265 10.2102C127.116 10.7964 126.968 11.3826 126.521 11.5291C126.223 11.8222 125.628 11.9688 125.033 11.9688C124.586 11.9688 124.139 11.8222 123.842 11.6757C123.544 11.3826 123.246 11.0895 123.246 10.6498H124.139C124.139 11.0895 124.437 11.236 125.033 11.236C125.479 11.236 125.926 11.0895 126.074 10.6498C126.223 10.3567 126.372 10.0636 126.372 9.47741C126.223 10.0636 125.777 10.2102 125.181 10.2102C124.586 10.2102 124.139 10.0636 123.842 9.62396C123.693 9.33086 123.544 8.8912 123.544 8.30499C123.544 7.57223 123.693 6.98603 124.139 6.39982C124.437 5.81361 125.033 5.52051 125.777 5.52051C126.521 5.52051 126.968 5.81361 127.116 6.39982L127.265 5.52051L128.307 5.66706ZM126.819 7.42568C126.819 7.13258 126.67 6.83948 126.521 6.69292C126.372 6.54637 126.074 6.39982 125.777 6.39982C125.33 6.39982 124.884 6.69292 124.735 7.13258C124.586 7.57223 124.437 7.86534 124.437 8.45155C124.437 9.1843 124.735 9.62396 125.479 9.62396C125.926 9.62396 126.372 9.33086 126.521 8.8912C126.819 8.30499 126.819 7.86534 126.819 7.42568Z" fill="white"/>
<path d="M136.792 4.055L136.494 4.93431H133.666L133.368 6.54637H136.047L135.899 7.42568H133.219L132.773 9.33086H135.899L135.75 10.2102H131.582L132.773 4.055H136.792Z" fill="white"/>
<path d="M141.406 5.66708L139.62 7.86535L140.81 10.2102H139.769L139.024 8.59811L137.982 10.2102H136.792L138.578 7.86535L137.536 5.66708H138.578L139.173 7.13259L140.364 5.66708H141.406Z" fill="white"/>
<path d="M146.318 7.13258H145.425C145.425 6.83948 145.276 6.69293 145.127 6.54638C144.978 6.39982 144.681 6.25327 144.532 6.25327C144.085 6.25327 143.639 6.54638 143.49 6.98603C143.192 7.42569 143.192 7.86534 143.192 8.305C143.192 9.03776 143.49 9.47741 144.234 9.47741C144.532 9.47741 144.829 9.33086 144.978 9.18431C145.127 9.03776 145.276 8.74465 145.425 8.45155H146.318C146.169 9.03776 146.02 9.47741 145.574 9.77051C145.127 10.0636 144.681 10.2102 144.085 10.2102C143.49 10.2102 142.894 10.0636 142.597 9.62396C142.299 9.33086 142.15 8.74465 142.15 8.15844C142.15 7.42569 142.299 6.83948 142.746 6.25327C143.192 5.66707 143.787 5.37396 144.532 5.37396C145.127 5.37396 145.574 5.52051 145.871 5.81362C146.169 6.25327 146.318 6.69293 146.318 7.13258Z" fill="white"/>
<path d="M151.825 7.42568C151.825 7.57223 151.825 7.86534 151.825 8.15844H148.551V8.30499C148.551 9.03775 148.848 9.47741 149.593 9.47741C150.188 9.47741 150.486 9.1843 150.635 8.74465H151.676C151.528 9.1843 151.23 9.62396 150.932 9.91706C150.486 10.2102 150.039 10.3567 149.593 10.3567C148.997 10.3567 148.551 10.2102 148.104 9.77051C147.806 9.47741 147.658 8.8912 147.658 8.30499C147.658 7.57223 147.806 6.98603 148.253 6.39982C148.699 5.81361 149.295 5.52051 150.039 5.52051C150.635 5.52051 151.081 5.66706 151.379 6.10672C151.676 6.39982 151.825 6.83948 151.825 7.42568ZM150.932 7.27913C150.932 6.98603 150.932 6.69292 150.783 6.54637C150.635 6.39982 150.337 6.25327 150.039 6.25327C149.295 6.25327 148.848 6.69292 148.699 7.42568H150.932C150.932 7.42568 150.932 7.42568 150.932 7.27913Z" fill="white"/>
<path d="M155.1 4.055L153.909 10.2102H152.867L154.207 4.055H155.1Z" fill="white"/>
<path d="M157.928 4.055L156.588 10.2102H155.695L156.886 4.055H157.928Z" fill="white"/>
<path d="M162.84 7.42568C162.84 7.57223 162.84 7.86534 162.84 8.15844H159.565V8.30499C159.565 9.03775 159.863 9.47741 160.607 9.47741C161.203 9.47741 161.5 9.1843 161.649 8.74465H162.691C162.542 9.1843 162.245 9.62396 161.947 9.91706C161.5 10.2102 161.054 10.3567 160.607 10.3567C160.012 10.3567 159.565 10.2102 159.119 9.77051C158.821 9.47741 158.672 8.8912 158.672 8.30499C158.672 7.57223 158.821 6.98603 159.268 6.39982C159.714 5.81361 160.31 5.52051 161.054 5.52051C161.649 5.52051 162.096 5.66706 162.394 6.10672C162.691 6.39982 162.84 6.83948 162.84 7.42568ZM161.947 7.27913C161.947 6.98603 161.947 6.69292 161.798 6.54637C161.649 6.39982 161.352 6.25327 161.054 6.25327C160.31 6.25327 159.863 6.69292 159.714 7.42568H161.947C161.947 7.42568 161.947 7.42568 161.947 7.27913Z" fill="white"/>
<path d="M168.496 6.69294C168.496 6.83949 168.496 6.98604 168.496 7.27914L167.901 10.2102H166.859L167.454 7.27914C167.454 7.13259 167.454 6.98604 167.454 6.83949C167.454 6.54638 167.306 6.25328 166.859 6.25328C166.115 6.25328 165.519 6.69294 165.371 7.7188L164.924 10.2102H164.031L164.924 5.66707H165.817L165.668 6.39983C166.115 5.81363 166.71 5.66707 167.306 5.66707C168.05 5.52052 168.496 5.96018 168.496 6.69294Z" fill="white"/>
<path d="M174.004 7.13258H173.111C173.111 6.83948 172.962 6.69293 172.813 6.54638C172.664 6.39982 172.366 6.25327 172.218 6.25327C171.771 6.25327 171.324 6.54638 171.176 6.98603C170.878 7.42569 170.878 7.86534 170.878 8.305C170.878 9.03776 171.176 9.47741 171.92 9.47741C172.218 9.47741 172.515 9.33086 172.664 9.18431C172.813 9.03776 172.962 8.74465 173.111 8.45155H174.004C173.855 9.03776 173.706 9.47741 173.259 9.77051C172.813 10.0636 172.366 10.2102 171.771 10.2102C171.176 10.2102 170.58 10.0636 170.283 9.62396C169.985 9.33086 169.836 8.74465 169.836 8.15844C169.836 7.42569 169.985 6.83948 170.431 6.25327C170.878 5.66707 171.473 5.37396 172.218 5.37396C172.813 5.37396 173.259 5.52051 173.557 5.81362C173.855 6.25327 174.004 6.69293 174.004 7.13258Z" fill="white"/>
<path d="M179.511 7.42568C179.511 7.57223 179.511 7.86534 179.511 8.15844H176.236V8.30499C176.236 9.03775 176.534 9.47741 177.278 9.47741C177.874 9.47741 178.172 9.1843 178.32 8.74465H179.362C179.213 9.1843 178.916 9.62396 178.618 9.91706C178.172 10.2102 177.725 10.3567 177.278 10.3567C176.683 10.3567 176.236 10.2102 175.79 9.77051C175.492 9.47741 175.343 8.8912 175.343 8.30499C175.343 7.57223 175.492 6.98603 175.939 6.39982C176.385 5.81361 176.981 5.52051 177.725 5.52051C178.32 5.52051 178.767 5.66706 179.065 6.10672C179.362 6.39982 179.511 6.83948 179.511 7.42568ZM178.469 7.27913C178.469 6.98603 178.469 6.69292 178.32 6.54637C178.172 6.39982 177.874 6.25327 177.576 6.25327C176.832 6.25327 176.385 6.69292 176.236 7.42568H178.469C178.469 7.42568 178.469 7.42568 178.469 7.27913Z" fill="white"/>
</svg>
