<svg width="43" height="33" viewBox="0 0 43 33" fill="none" xmlns="http://www.w3.org/2000/svg">
<path d="M42.2577 13.0894C42.1225 13.0113 41.9692 12.9702 41.8131 12.9702C41.6571 12.9702 41.5038 13.0113 41.3686 13.0894L32.6823 17.4014H30.2285V12.0669C30.2285 11.8311 30.1348 11.605 29.9681 11.4383C29.8014 11.2715 29.5752 11.1779 29.3394 11.1779H28.8682C29.179 10.3229 29.3384 9.42032 29.3394 8.51063C29.3379 6.65695 28.6928 4.86131 27.5144 3.43043C26.3359 1.99955 24.6973 1.0222 22.8783 0.665327C21.0593 0.308454 19.1728 0.594199 17.5411 1.47375C15.9093 2.35331 14.6336 3.7721 13.9318 5.48778C13.0886 4.21456 11.858 3.24651 10.4221 2.72683C8.98611 2.20716 7.42101 2.16345 5.95829 2.60217C4.49556 3.04089 3.21287 3.93874 2.29994 5.16292C1.38702 6.3871 0.89234 7.8726 0.889074 9.39971C0.893026 9.99965 0.97066 10.5968 1.12023 11.1779H0.889074C0.653277 11.1779 0.427137 11.2715 0.260404 11.4383C0.09367 11.605 0 11.8311 0 12.0669V31.6265C0 31.8623 0.09367 32.0885 0.260404 32.2552C0.427137 32.422 0.653277 32.5156 0.889074 32.5156H29.3394C29.5752 32.5156 29.8014 32.422 29.9681 32.2552C30.1348 32.0885 30.2285 31.8623 30.2285 31.6265V28.0703H32.6823L41.3864 32.4178C41.5102 32.4813 41.6473 32.5148 41.7865 32.5156C41.9529 32.5162 42.1162 32.4699 42.2577 32.3823C42.3858 32.3022 42.4914 32.1908 42.5645 32.0585C42.6376 31.9263 42.6758 31.7776 42.6755 31.6265V13.8451C42.6758 13.694 42.6376 13.5453 42.5645 13.4131C42.4914 13.2809 42.3858 13.1694 42.2577 13.0894ZM21.3378 2.28712C22.5687 2.28712 23.7719 2.65212 24.7954 3.33597C25.8188 4.01982 26.6165 4.9918 27.0875 6.129C27.5586 7.2662 27.6818 8.51754 27.4417 9.72478C27.2016 10.932 26.6088 12.0409 25.7385 12.9113C24.8681 13.7817 23.7592 14.3744 22.5519 14.6146C21.3447 14.8547 20.0933 14.7315 18.9561 14.2604C17.8189 13.7894 16.847 12.9917 16.1631 11.9682C15.4793 10.9448 15.1143 9.74153 15.1143 8.51063C15.1143 6.86005 15.7699 5.27708 16.9371 4.10994C18.1042 2.94281 19.6872 2.28712 21.3378 2.28712ZM8.00166 4.06527C9.05672 4.06527 10.0881 4.37813 10.9653 4.96428C11.8426 5.55044 12.5263 6.38356 12.93 7.35831C13.3338 8.33305 13.4394 9.40562 13.2336 10.4404C13.0278 11.4752 12.5197 12.4257 11.7737 13.1717C11.0276 13.9178 10.0771 14.4258 9.04236 14.6316C8.00758 14.8375 6.935 14.7318 5.96026 14.3281C4.98552 13.9243 4.15239 13.2406 3.56624 12.3634C2.98008 11.4861 2.66722 10.4548 2.66722 9.39971C2.66722 7.98493 3.22924 6.62809 4.22964 5.62769C5.23004 4.62729 6.58688 4.06527 8.00166 4.06527ZM28.4504 30.7375H1.77815V12.956H1.84927C2.47451 14.0338 3.37193 14.9285 4.45168 15.5504C5.53142 16.1723 6.75561 16.4997 8.00166 16.4997C9.24771 16.4997 10.4719 16.1723 11.5517 15.5504C12.6314 14.9285 13.5288 14.0338 14.1541 12.956H14.6875C15.4174 14.0564 16.4083 14.959 17.5717 15.5834C18.7352 16.2078 20.0351 16.5346 21.3555 16.5346C22.676 16.5346 23.9759 16.2078 25.1394 15.5834C26.3028 14.959 27.2937 14.0564 28.0236 12.956H28.4504V30.7375ZM32.0067 26.2921H30.2285V19.1795H32.0067V26.2921ZM40.8974 30.1863L33.7848 26.63V18.8417L40.8974 15.2854V30.1863Z" fill="#484848"/>
<path d="M21.3377 11.1778C21.8652 11.1778 22.3809 11.0214 22.8195 10.7283C23.2581 10.4353 23.6 10.0187 23.8019 9.5313C24.0037 9.04393 24.0566 8.50764 23.9536 7.99025C23.8507 7.47286 23.5967 6.99761 23.2237 6.62459C22.8507 6.25157 22.3754 5.99755 21.858 5.89463C21.3406 5.79172 20.8043 5.84453 20.317 6.04641C19.8296 6.24829 19.413 6.59015 19.12 7.02877C18.8269 7.46739 18.6704 7.98308 18.6704 8.5106C18.6704 9.21799 18.9515 9.89641 19.4517 10.3966C19.9519 10.8968 20.6303 11.1778 21.3377 11.1778ZM21.3377 7.62153C21.5135 7.62153 21.6854 7.67367 21.8316 7.77136C21.9778 7.86906 22.0918 8.00791 22.1591 8.17037C22.2264 8.33282 22.244 8.51159 22.2097 8.68405C22.1754 8.85651 22.0907 9.01493 21.9663 9.13927C21.842 9.26361 21.6836 9.34829 21.5111 9.38259C21.3387 9.4169 21.1599 9.39929 20.9974 9.332C20.835 9.26471 20.6961 9.15075 20.5984 9.00454C20.5007 8.85834 20.4486 8.68644 20.4486 8.5106C20.4486 8.2748 20.5423 8.04867 20.709 7.88193C20.8757 7.7152 21.1019 7.62153 21.3377 7.62153Z" fill="#484848"/>
<path d="M8.00169 12.067C8.52922 12.067 9.0449 11.9106 9.48352 11.6175C9.92214 11.3244 10.264 10.9079 10.4659 10.4205C10.6677 9.93309 10.7205 9.3968 10.6176 8.87941C10.5147 8.36202 10.2607 7.88677 9.8877 7.51375C9.51469 7.14073 9.03943 6.88671 8.52204 6.78379C8.00465 6.68088 7.46836 6.7337 6.98099 6.93557C6.49362 7.13745 6.07706 7.47931 5.78398 7.91793C5.4909 8.35656 5.33447 8.87224 5.33447 9.39976C5.33447 10.1072 5.61548 10.7856 6.11568 11.2858C6.61588 11.786 7.2943 12.067 8.00169 12.067ZM8.00169 8.51069C8.17754 8.51069 8.34943 8.56283 8.49564 8.66052C8.64184 8.75822 8.7558 8.89707 8.82309 9.05953C8.89038 9.22199 8.90799 9.40075 8.87368 9.57321C8.83938 9.74568 8.7547 9.90409 8.63036 10.0285C8.50602 10.1528 8.34761 10.2375 8.17514 10.2718C8.00268 10.3061 7.82392 10.2885 7.66146 10.2212C7.499 10.1539 7.36015 10.04 7.26246 9.89371C7.16476 9.7475 7.11262 9.5756 7.11262 9.39976C7.11262 9.16397 7.20629 8.93783 7.37302 8.77109C7.53976 8.60436 7.7659 8.51069 8.00169 8.51069Z" fill="#484848"/>
<path d="M20.0309 21.9802L12.9183 17.5348C12.7836 17.4507 12.6288 17.4041 12.47 17.4C12.3112 17.3959 12.1542 17.4344 12.0154 17.5116C11.8765 17.5887 11.7608 17.7017 11.6804 17.8387C11.6 17.9757 11.5577 18.1317 11.5581 18.2906V27.1813C11.5592 27.3397 11.6027 27.495 11.684 27.631C11.7652 27.7669 11.8814 27.8787 12.0204 27.9548C12.1491 28.0322 12.2969 28.0722 12.4471 28.0704C12.6136 28.0709 12.7769 28.0247 12.9183 27.937L20.0309 23.4916C20.1596 23.4119 20.2658 23.3006 20.3394 23.1684C20.413 23.0361 20.4517 22.8873 20.4517 22.7359C20.4517 22.5846 20.413 22.4357 20.3394 22.3035C20.2658 22.1712 20.1596 22.0599 20.0309 21.9802ZM13.3362 25.581V19.8909L17.8794 22.7359L13.3362 25.581Z" fill="#484848"/>
</svg>
