<svg xmlns="http://www.w3.org/2000/svg" width="464" height="419.1" viewBox="0 0 464 419.1"><defs><style>.cls-1{fill:#484848;}</style></defs><title>virtual-event</title><g id="Layer_2" data-name="Layer 2"><g id="Layer_1-2" data-name="Layer 1"><path class="cls-1" d="M434.06,37.42h-89.8V7.49A7.48,7.48,0,0,0,333.06,1L291.87,24.52v-17A7.48,7.48,0,0,0,284.39,0H127.23a7.49,7.49,0,0,0-7.49,7.49V37.42H29.94A30,30,0,0,0,0,67.36V321.81a30,30,0,0,0,29.94,29.94H184.2l-10,29.93H149.68a7.49,7.49,0,0,0-7.49,7.49v22.45a7.48,7.48,0,0,0,7.49,7.48H314.32a7.48,7.48,0,0,0,7.49-7.48V389.17a7.49,7.49,0,0,0-7.49-7.49H289.78l-10-29.93H434.06A30,30,0,0,0,464,321.81V67.36A30,30,0,0,0,434.06,37.42ZM291.87,41.76l37.42-21.37v93.94L291.87,93ZM134.71,15H276.9V119.75H134.71ZM306.84,396.65v7.48H157.16v-7.48ZM190,381.68l10-29.93h64l10,29.93Zm259-59.87a15,15,0,0,1-15,15H29.94a15,15,0,0,1-15-15v-15H449Zm0-29.93H15V67.36a15,15,0,0,1,15-15h89.8v74.84a7.48,7.48,0,0,0,7.49,7.48H284.39a7.48,7.48,0,0,0,7.48-7.48v-17l41.19,23.54a7.49,7.49,0,0,0,11.2-6.5V52.39h89.8a15,15,0,0,1,15,15Z"/><path class="cls-1" d="M82.32,314.33H37.42a7.48,7.48,0,1,0,0,15h44.9a7.48,7.48,0,1,0,0-15Z"/><path class="cls-1" d="M112.26,314.33h-7.49a7.48,7.48,0,1,0,0,15h7.49a7.48,7.48,0,0,0,0-15Z"/><path class="cls-1" d="M142.19,261.94H321.81A30,30,0,0,0,351.74,232V179.62a30,30,0,0,0-29.93-29.94H142.19a30,30,0,0,0-29.93,29.94V232A30,30,0,0,0,142.19,261.94Zm-15-82.32a15,15,0,0,1,15-15H321.81a15,15,0,0,1,15,15V232a15,15,0,0,1-15,15H142.19a15,15,0,0,1-15-15Z"/><path class="cls-1" d="M149.68,239.49h29.93a7.49,7.49,0,1,0,0-15H157.16v-44.9a7.49,7.49,0,1,0-15,0V232A7.49,7.49,0,0,0,149.68,239.49Z"/><path class="cls-1" d="M202.06,239.49a7.49,7.49,0,0,0,7.49-7.49V179.62a7.49,7.49,0,1,0-15,0V232A7.48,7.48,0,0,0,202.06,239.49Z"/><path class="cls-1" d="M284.39,239.49h29.93a7.49,7.49,0,1,0,0-15H291.87v-15h7.48a7.49,7.49,0,1,0,0-15h-7.48V187.1h22.45a7.49,7.49,0,1,0,0-15H284.39a7.49,7.49,0,0,0-7.49,7.49V232A7.49,7.49,0,0,0,284.39,239.49Z"/><path class="cls-1" d="M239.77,234.06a7.48,7.48,0,0,0,14.39,0l15-52.38a7.48,7.48,0,1,0-14.39-4.12h0L247,204.76l-7.77-27.2a7.49,7.49,0,1,0-14.4,4.12Z"/></g></g></svg>